<?xml version="1.0" encoding="utf-8"?>
<!-- Generator: Adobe Illustrator 25.3.0, SVG Export Plug-In . SVG Version: 6.00 Build 0)  -->
<svg version="1.1" id="f80ac8e4-2caa-4423-8a04-d031625ae9d5"
	 xmlns="http://www.w3.org/2000/svg" xmlns:xlink="http://www.w3.org/1999/xlink" x="0px" y="0px" viewBox="0 0 197 185.5"
	 style="enable-background:new 0 0 197 185.5;" xml:space="preserve">
<style type="text/css">
	.st0{fill:#35495E;}
	.st1{fill:#41B883;}
</style>
<path class="st0" d="M30.2,53.8c-0.1,0.8-0.3,1.6-1.1,1.6c-0.3-0.2-0.7-0.4-1.1-0.4c-0.4,0-0.7,0.3-1.1,0.3c-1.2,0-2.1-0.9-2.2-2.1
	c0-0.6-0.4-1.2-0.4-1.9c0-0.9,0.1-1.7,0.1-2.6c0-0.4,0-0.8-0.1-1.2c0.2-1.3-0.3-2.7,0.3-3.9c-0.6-3.2-0.4-7-0.4-10.2
	c0-10.2,0.1-20.4,0.1-30.5c0.7-1,0.6-2.4,2.2-2.4c0.8,0.1,1.7,0.2,2.5,0.1c0.5,1.2,0.7,2.6,0.6,3.9c0,2.3-0.4,4.6-0.3,6.9
	c-0.3,0.7,0.1,1.4,0.1,2.2c0,1.3-0.1,2.6-0.4,3.8c0.4,2.1,0.7,4.2,0.8,6.3c0.3,0.4-0.1,5,0.1,5.9c-0.1,0.2-0.2,0.4-0.2,0.6l0.2,0.6
	c-0.1,1.8-0.1,3.5-0.1,5.3c0,1-0.4,2-0.4,3c0,3.5,0.6,7,0.6,10.5C30.2,51.1,29.7,52.5,30.2,53.8z M28,33.8c0-0.7-0.1-1.5-0.3-2.2V31
	c0-2.7-0.4-5.4-0.4-8.1c-0.1-0.1-0.1-0.3-0.1-0.4c0-0.7,0.7-1.2,0.1-1.9l0.1-0.1l0.1-0.4l-0.5-0.4l0.1-1.7c0.1-2.7-0.3-5.5-0.4-8.2
	c-0.4-0.7-0.1-1.6-0.1-2.5c0-0.5-0.2-1.1-0.6-1.4c-0.6,0.4-0.5,2.8-0.5,3.5c0,0.6,0,1.2-0.2,1.7c0.2,2.2,0.3,4.4,0.1,6.5
	c0.1,0.3,0.2,0.7,0.1,1.1c0,4.6-0.4,9.3-0.4,13.9c0,3.1,0,13.2,1,15.7l0.4-0.1c0.1-0.4,0.8-0.7,0.8-1.1c-0.1-0.2-0.3-0.3-0.5-0.4
	l0.6-0.4c0.2-3.2,0.6-6.5,0.6-9.6L28,33.8z M27.7,6.1l0.1,0.6C27.8,6.5,28,6.1,27.7,6.1L27.7,6.1z M57.2,50.3h-0.3
	c-0.5,0-0.5,0.8-0.9,1c-1.5,1.3-3.1,2.4-4.8,3.2l-0.4-0.1c-1.4,0-3.5,1.1-5.4,1.1c-0.9,0-1.7-0.2-2.4-0.6L42.5,55
	c-0.9,0-1.7,0.3-2.7,0.3c-0.4,0-0.8,0-1.2-0.1c-0.1-0.2-0.2-0.5-0.2-0.7c0-0.6,0.4-1,0.4-1.7c0-0.7-0.2-1.4-0.5-2
	c0.1-0.9-0.3-2.5,0.9-2.8s4.3,0,5.6,0c1.9,0.1,3.7-0.3,5.4-1.1c2.1-0.1,4.5-4.7,4.5-6.5c-0.1-1.5-0.5-3-1.1-4.5v-0.1
	c0-0.9-1.6-1.2-1-2.4c-0.4-0.4-0.7-1.5-1.3-1.5c-0.2,0-0.4,0.1-0.6,0.3c-1.3-0.4-2.2-1-3.5-1c-0.9,0-1-0.7-2.2-0.6
	c-1,0.1-2,0.2-3,0.1c-0.6,0-1.1-0.1-1.6-0.2c-0.1-0.9-1.1-0.6-1.7-0.6c-0.2-0.1-0.5-0.1-0.7-0.2c0.2-0.6,0.6-1.2,1.1-1.5
	c-0.4-0.6-1.1-1.1-1.1-1.8l0.3-0.6c-0.2-0.1-0.3-0.4-0.4-0.6l0.4-0.5c0.5-0.3,1.1-0.1,1.6-0.1c0.3,0,0.6-0.1,0.8-0.3
	c1.3-0.3,2.8-0.3,4-1.2c0,0.1,0.1,0.1,0.1,0.1c0.4,0,0.6-0.5,0.9-0.4c3.2-1,5.6-3.5,5.6-6.9c0-0.6-0.1-1.1-0.4-1.6v-0.4
	c0.1-1.6-1.7-3.6-2.7-4.8c-0.9-1.1-2.8-0.5-3.7-1.7c-1.4-0.4-3.3-0.1-4.1-1.6c-0.7-0.4-1.6-0.4-2.3-0.8c-0.3-0.4,0.1-0.9,0.1-1.4
	C38.1,3,38,2.7,38.1,2.3c0-0.7,0.4-1.4,0.3-2.2C38.5,0,38.7,0,39,0c0.9,0,1.2,0.9,2.4,0.5L42,0.8c1-0.3,2-0.5,2.9-0.6
	c1.1,0,2.2,0.6,3.2,0.8c0,0.5,0.7,0.3,1,0.6c1.1,0.8,2.7,1.6,3.5,2.8c3.7,1.5,5,7.2,5,10.8c0,0.6-0.1,1.3-0.1,1.9
	c0.4,1.8-1.1,3.1-1.4,4.8c-0.7,0.9-1,2-1,3.1c0,3,3,4.4,3.8,7.3c1.1,0.8,0.2,2.3,1.6,3.5c0.6,0.8,0.9,1.8,0.9,2.8
	C61.5,42.4,59.9,47.7,57.2,50.3L57.2,50.3z M43.4,51.5c-0.1-0.4-0.1-0.7,0-1.1c0-0.1-0.1-0.2-0.1-0.2s-0.4,0.4-0.6,0.1
	c-0.3,0.4-0.9,0.3-1.3,0.3c-0.3,0-0.6,0.1-0.8,0.4c-0.1,0.3-0.3,0.6,0,0.9C40,52.4,40.1,53,40,53.6c0.8-0.1,1.6-0.1,2.4,0
	c0.5-0.2,1.7-0.8,1.7-1.4C44,51.8,43.7,51.6,43.4,51.5L43.4,51.5z M43,2.2l-0.2,0.1C43.3,3,44,3.5,44.5,4.1l0.2-0.2
	C44.2,3.4,43.9,2.2,43,2.2L43,2.2z M48.1,23.8l-0.2,0.5h0.1c0.1,0,0.1-0.1,0.1-0.2S48.2,24,48.1,23.8L48.1,23.8z M48.8,27.3h-0.3
	l0.1,0.2L48.8,27.3L48.8,27.3z M53.5,7.8c-0.6-1.3-0.8-3.2-2.4-3.6L51,4.6c0.8,1.1,2.4,5.5,2.7,5.8l0.1-0.5
	C53.7,9.2,53.6,8.5,53.5,7.8L53.5,7.8z M53.3,18.3c-0.7,0.9,0,2.4-0.4,3.5c0.6-0.1,0.8-0.9,0.6-1.4c0.2-0.3,0.2-0.6,0.2-0.9
	C53.7,19.1,53.5,18.6,53.3,18.3z M53.4,29.1l-0.1,0.1l-0.1,0.4c0,0.1,0.1,0.4,0.3,0.4h0.1c0.1-0.1,0.1-0.2,0.1-0.4
	C53.6,29.3,53.6,29,53.4,29.1L53.4,29.1z"/>
<path class="st0" d="M84.7,53.8c-0.1,0.8-0.3,1.6-1.1,1.6c-0.3-0.2-0.7-0.4-1.1-0.4c-0.4,0-0.7,0.3-1.1,0.3c-1.2,0-2.1-0.9-2.2-2.1
	c0-0.6-0.4-1.2-0.4-1.9c0-0.9,0.1-1.7,0.1-2.6c0-0.4,0-0.8-0.1-1.2c0.2-1.3-0.3-2.7,0.3-3.9c-0.6-3.2-0.4-7-0.4-10.2
	c0-10.2,0.1-20.4,0.1-30.5c0.7-1,0.6-2.4,2.2-2.4c0.8,0.1,1.7,0.2,2.5,0.1c0.5,1.2,0.7,2.6,0.6,3.9c0,2.3-0.4,4.6-0.3,6.9
	c-0.3,0.7,0.1,1.4,0.1,2.2c0,1.3-0.1,2.6-0.4,3.8c0.4,2.1,0.7,4.2,0.8,6.3c0.3,0.4-0.1,5,0.1,5.9c-0.1,0.2-0.2,0.4-0.2,0.6l0.2,0.6
	c-0.1,1.8-0.1,3.5-0.1,5.3c0,1-0.4,2-0.4,3c0,3.5,0.6,7,0.6,10.5C84.7,51.1,84.3,52.5,84.7,53.8z M82.6,33.8c0-0.7-0.1-1.5-0.3-2.2
	V31c0-2.7-0.4-5.4-0.4-8.1c-0.1-0.1-0.1-0.3-0.1-0.4c0-0.7,0.7-1.2,0.1-1.9l0.1-0.1l0.1-0.4l-0.5-0.4l0.1-1.7
	c0.1-2.7-0.3-5.5-0.4-8.2c-0.4-0.7-0.1-1.6-0.1-2.5c0-0.5-0.2-1.1-0.6-1.4c-0.6,0.4-0.5,2.8-0.5,3.5c0,0.6,0,1.2-0.2,1.7
	c0.2,2.2,0.3,4.4,0.1,6.5c0.1,0.3,0.2,0.7,0.1,1.1c0,4.6-0.4,9.3-0.4,13.9c0,3.1,0,13.2,1,15.7l0.4-0.1c0.1-0.4,0.8-0.7,0.8-1.1
	c-0.1-0.2-0.3-0.3-0.5-0.4l0.6-0.4c0.2-3.2,0.6-6.5,0.6-9.6L82.6,33.8z M82.3,6.1l0.1,0.6C82.4,6.5,82.6,6.1,82.3,6.1L82.3,6.1z
	 M111.7,50.3h-0.2c-0.5,0-0.5,0.8-0.9,1c-1.5,1.3-3.1,2.4-4.8,3.2l-0.4-0.1c-1.5,0-3.5,1.1-5.4,1.1c-0.8,0-1.7-0.2-2.4-0.6L97.1,55
	c-0.9,0-1.7,0.3-2.7,0.3c-0.4,0-0.8,0-1.1-0.1c-0.1-0.2-0.2-0.5-0.2-0.7c0-0.6,0.4-1,0.4-1.7c0-0.7-0.2-1.4-0.5-2
	c0.1-0.9-0.3-2.5,0.9-2.8c1.1-0.3,4.3,0,5.6,0c1.9,0.1,3.7-0.3,5.4-1.1c2.1-0.1,4.5-4.7,4.5-6.5c-0.1-1.5-0.5-3-1.1-4.5v-0.1
	c0-0.9-1.7-1.2-1-2.4c-0.4-0.4-0.7-1.5-1.3-1.5c-0.2,0-0.4,0.1-0.6,0.3c-1.3-0.4-2.2-1-3.5-1c-0.9,0-1-0.7-2.2-0.6
	c-1,0.1-2,0.2-3,0.1c-0.6,0-1.1-0.1-1.7-0.2c-0.1-0.9-1.1-0.6-1.7-0.6c-0.2-0.1-0.5-0.1-0.7-0.2c0.2-0.6,0.6-1.2,1.2-1.5
	c-0.4-0.6-1.2-1.1-1.2-1.8l0.3-0.6c-0.2-0.2-0.3-0.4-0.4-0.6l0.4-0.5c0.5-0.3,1.1-0.1,1.6-0.1c0.3,0,0.6-0.1,0.8-0.3
	c1.3-0.3,2.8-0.3,4-1.2c0,0.1,0.1,0.1,0.1,0.1c0.4,0,0.6-0.5,0.9-0.4c3.2-1,5.6-3.5,5.6-6.9c0-0.6-0.1-1.1-0.4-1.6v-0.4
	c0.1-1.6-1.7-3.6-2.7-4.8s-2.8-0.5-3.7-1.7C98,6.6,96,6.9,95.2,5.4c-0.7-0.4-1.6-0.4-2.3-0.8C92.7,4.1,93,3.7,93,3.2
	c-0.2-0.2-0.3-0.6-0.3-0.9c0-0.7,0.4-1.4,0.3-2.2C93.2,0,93.4,0,93.7,0c0.9,0,1.2,0.9,2.4,0.5l0.6,0.3c1-0.3,2-0.5,3-0.6
	c1.1,0,2.2,0.6,3.2,0.8c0,0.5,0.7,0.3,1,0.6c1.1,0.8,2.7,1.6,3.5,2.8c3.8,1.5,5,7.2,5,10.8c0,0.6-0.1,1.3-0.1,1.9
	c0.4,1.8-1.2,3.1-1.4,4.8c-0.7,0.9-1,2-1,3.1c0,3,3,4.4,3.7,7.3c1.1,0.8,0.2,2.3,1.6,3.5c0.6,0.8,0.9,1.8,0.9,2.8
	C116.1,42.4,114.5,47.7,111.7,50.3L111.7,50.3z M97.9,51.6c-0.1-0.4-0.1-0.7,0-1.1c0-0.1-0.1-0.2-0.1-0.2s-0.4,0.4-0.6,0.1
	c-0.3,0.4-0.9,0.3-1.3,0.3c-0.3,0-0.6,0.1-0.8,0.4c-0.1,0.3-0.3,0.6,0,0.9c-0.4,0.4-0.4,1.1-0.4,1.6c0.8-0.1,1.6-0.1,2.5,0
	c0.5-0.2,1.7-0.8,1.7-1.4C98.6,51.9,98.3,51.6,97.9,51.6z M97.6,2.2l-0.2,0.1c0.5,0.7,1.2,1.2,1.7,1.9L99.3,4
	C98.8,3.4,98.5,2.2,97.6,2.2L97.6,2.2z M102.7,23.9l-0.1,0.4h0.1c0.1,0,0.1-0.1,0.1-0.2S102.7,24,102.7,23.9L102.7,23.9z
	 M103.3,27.4H103l0.1,0.2L103.3,27.4L103.3,27.4z M108.1,7.8c-0.6-1.3-0.8-3.2-2.4-3.6l-0.1,0.4c0.8,1.1,2.5,5.5,2.7,5.8l0.1-0.5
	C108.4,9.2,108.2,8.6,108.1,7.8L108.1,7.8z M107.9,18.3c-0.7,0.9,0,2.4-0.4,3.5c0.6-0.1,0.8-0.9,0.6-1.4c0.1-0.3,0.2-0.6,0.2-0.9
	C108.2,19.1,108.1,18.6,107.9,18.3z M108,29.1l-0.1,0.1l-0.1,0.4c0,0.1,0.1,0.4,0.3,0.4h0.1c0.1-0.1,0.1-0.2,0.1-0.4
	C108.2,29.3,108.2,29,108,29.1L108,29.1z"/>
<path class="st0" d="M139.3,53.8c-0.1,0.8-0.3,1.6-1.1,1.6c-0.3-0.2-0.7-0.4-1.1-0.4c-0.4,0-0.7,0.3-1.1,0.3c-1.2,0-2.1-0.9-2.2-2.1
	c0-0.6-0.4-1.2-0.4-1.9c0-0.9,0.1-1.7,0.1-2.6c0-0.4,0-0.8-0.1-1.2c0.2-1.3-0.3-2.7,0.3-3.9c-0.6-3.2-0.4-7-0.4-10.2
	c0-10.2,0.1-20.4,0.1-30.5c0.7-1,0.6-2.4,2.2-2.4c0.8,0.1,1.7,0.2,2.5,0.1c0.5,1.2,0.7,2.6,0.6,3.9c0,2.3-0.4,4.6-0.3,6.9
	c-0.3,0.7,0.1,1.4,0.1,2.2c0,1.3-0.1,2.6-0.4,3.8c0.4,2.1,0.7,4.2,0.8,6.3c0.3,0.4-0.1,5,0.1,5.9c-0.1,0.2-0.2,0.4-0.2,0.6l0.2,0.6
	c-0.1,1.8-0.1,3.5-0.1,5.3c0,1-0.4,2-0.4,3c0,3.5,0.6,7,0.6,10.5C139.3,51.1,138.9,52.5,139.3,53.8z M137.2,33.8
	c0-0.7-0.1-1.5-0.3-2.2V31c0-2.7-0.4-5.4-0.4-8.1c-0.1-0.1-0.1-0.3-0.1-0.4c0-0.7,0.7-1.2,0.1-1.9l0.1-0.1l0.1-0.4l-0.5-0.4l0.1-1.7
	c0.1-2.7-0.3-5.5-0.4-8.2c-0.4-0.7-0.1-1.6-0.1-2.5c0-0.5-0.2-1.1-0.6-1.4c-0.6,0.4-0.5,2.8-0.5,3.5c0,0.6,0,1.2-0.2,1.7
	c0.2,2.2,0.3,4.4,0.1,6.5c0.1,0.3,0.2,0.7,0.1,1.1c0,4.6-0.4,9.3-0.4,13.9c0,3.1,0,13.2,1,15.7l0.4-0.1c0.1-0.4,0.8-0.7,0.8-1.1
	c-0.1-0.2-0.3-0.3-0.5-0.4l0.6-0.4c0.2-3.2,0.6-6.5,0.6-9.6V33.8z M136.9,6.1l0.1,0.6C137,6.5,137.2,6.1,136.9,6.1L136.9,6.1z
	 M166.4,50.4h-0.2c-0.5,0-0.5,0.8-0.9,1c-1.5,1.3-3.1,2.4-4.8,3.2l-0.4-0.1c-1.4,0-3.5,1.1-5.4,1.1c-0.9,0-1.7-0.2-2.5-0.6l-0.4-0.1
	c-0.9,0-1.7,0.3-2.7,0.3c-0.4,0-0.8,0-1.1-0.1c-0.1-0.2-0.2-0.5-0.2-0.7c0-0.6,0.4-1,0.4-1.7c0-0.7-0.2-1.4-0.5-2
	c0.1-0.9-0.3-2.5,0.9-2.8s4.3,0,5.6,0c1.9,0.1,3.7-0.3,5.4-1.1c2.1-0.1,4.5-4.7,4.5-6.5c-0.1-1.5-0.5-3-1.1-4.5v-0.1
	c0-0.9-1.6-1.2-1-2.4c-0.4-0.4-0.7-1.5-1.3-1.5c-0.2,0-0.4,0.1-0.6,0.3c-1.3-0.4-2.2-1-3.5-1c-0.9,0-1-0.7-2.2-0.6
	c-1,0.1-2,0.2-3,0.1c-0.6,0-1.1-0.1-1.6-0.2c-0.1-0.9-1.1-0.6-1.7-0.6c-0.2-0.1-0.5-0.1-0.7-0.2c0.2-0.6,0.6-1.2,1.1-1.5
	c-0.4-0.6-1.1-1.1-1.1-1.8l0.3-0.6c-0.2-0.1-0.3-0.4-0.4-0.6l0.4-0.5c0.5-0.3,1.1-0.1,1.6-0.1c0.3,0,0.6-0.1,0.8-0.3
	c1.3-0.3,2.8-0.3,4-1.2c0,0.1,0.1,0.1,0.1,0.1c0.4,0,0.6-0.5,0.9-0.4c3.2-1,5.6-3.5,5.6-6.9c0-0.6-0.1-1.1-0.4-1.6v-0.4
	c0.1-1.6-1.7-3.6-2.7-4.8s-2.8-0.5-3.7-1.7c-1.4-0.4-3.3-0.1-4.1-1.6c-0.7-0.4-1.6-0.4-2.3-0.8c-0.3-0.4,0.1-0.9,0.1-1.4
	c-0.2-0.2-0.3-0.6-0.3-0.9c0-0.7,0.4-1.4,0.3-2.2c0.2-0.2,0.4-0.2,0.6-0.2c0.9,0,1.2,0.9,2.4,0.5l0.6,0.3c1-0.3,2-0.5,3-0.6
	c1.1,0,2.2,0.6,3.2,0.8c0,0.5,0.7,0.3,1,0.6c1.1,0.8,2.7,1.6,3.5,2.8c3.7,1.5,5,7.2,5,10.8c0,0.6-0.1,1.3-0.1,1.9
	c0.4,1.8-1.1,3.1-1.4,4.8c-0.7,0.9-1,2-1,3.1c0,3,3,4.4,3.7,7.3c1.1,0.8,0.2,2.3,1.6,3.5c0.6,0.8,0.9,1.8,0.9,2.8
	C170.7,42.4,169.1,47.7,166.4,50.4L166.4,50.4z M152.5,51.5c-0.1-0.4-0.1-0.7,0-1.1c0-0.1-0.1-0.2-0.1-0.2s-0.4,0.4-0.6,0.1
	c-0.3,0.4-0.9,0.3-1.3,0.3c-0.3,0-0.6,0.1-0.8,0.4c-0.1,0.3-0.3,0.6,0,0.9c-0.4,0.4-0.4,1.1-0.4,1.6c0.8-0.1,1.6-0.1,2.5,0
	c0.5-0.2,1.7-0.8,1.7-1.4C153.2,51.8,152.9,51.6,152.5,51.5L152.5,51.5z M152.2,2.2l-0.3,0.1c0.5,0.7,1.2,1.2,1.7,1.9l0.2-0.2
	C153.4,3.4,153.1,2.2,152.2,2.2L152.2,2.2z M157.3,23.9l-0.1,0.4h0.1c0.1,0,0.1-0.1,0.1-0.2S157.3,24,157.3,23.9L157.3,23.9z
	 M157.9,27.3h-0.3l0.1,0.2L157.9,27.3L157.9,27.3z M162.7,7.8c-0.6-1.3-0.8-3.2-2.4-3.6l-0.1,0.4c0.8,1.1,2.5,5.5,2.7,5.8l0.1-0.5
	C162.9,9.2,162.8,8.5,162.7,7.8L162.7,7.8z M162.4,18.3c-0.7,0.9,0,2.4-0.4,3.5c0.6-0.1,0.8-0.9,0.6-1.4c0.2-0.3,0.2-0.6,0.2-0.9
	C162.8,19.1,162.7,18.6,162.4,18.3z M162.6,29.1l-0.1,0.1l-0.1,0.4c0,0.1,0.1,0.4,0.3,0.4h0.1c0.1-0.1,0.1-0.2,0.1-0.4
	C162.8,29.3,162.8,29,162.6,29.1L162.6,29.1z"/>
<path class="st1" d="M0,74.6c0-0.2,0.2-0.4,0.4-0.4c0,0,0,0,0,0h1.1l3.1,10.1c0.2,0.6,1,3.4,1,3.4l1-3.4l3-9.8
	c0.1-0.1,0.1-0.4,0.4-0.4h1.2V94c0,0.4,0,0.4-1.6,0.4l0.1-8.8c0-1,0.2-5.8,0.2-7.6c-0.7,2.2-2,6.7-2.1,7.1L6.1,90
	c0,0.1-0.2,0.2-0.3,0.3H5l-1.6-5.2c-0.1-0.3-1.4-4.8-2.1-7.1c0.1,1.4,0.2,6.4,0.3,7.3V94c0,0.4,0,0.4-1.6,0.4L0,74.6z"/>
<path class="st1" d="M28.2,79.4c-0.2-0.4-0.3-0.7-0.2-1.1c0-0.2,4.6-1.2,5.2-1.2c0.2,0,0.3,0,0.5,0.1L33.2,93h2.5
	c0.5,0,1.1,0,1.6-0.1c0,0.9,0,1.6-0.2,1.6H27c0-0.3,0-0.9,0-1.2s3.6-0.3,4.6-0.3l0.4-14.2C31.4,78.8,28.2,79.4,28.2,79.4z"/>
<path class="st1" d="M47.7,77.1c3.8,0,5.1,2.7,5.1,8.4c0,6-1.4,9.4-5.3,9.4s-5.1-3-5.1-9C42.3,80.2,43.9,77.1,47.7,77.1z M47.5,93.4
	c2.7,0,3.6-2.8,3.6-8c0-4.6-0.8-6.9-3.3-6.9c-2.8,0-3.7,2.8-3.7,7.5C44,91.2,45.1,93.4,47.5,93.4L47.5,93.4z"/>
<path class="st1" d="M59.3,92c0.6-0.1,1.2,0.4,1.3,1.1c0,0.1,0,0.1,0,0.2c0,0.7-0.5,1.3-1.1,1.3c0,0-0.1,0-0.1,0
	c-0.9,0-1.2-0.5-1.2-1.3C58.1,92.6,58.6,92.1,59.3,92C59.3,92,59.3,92,59.3,92z"/>
<path class="st1" d="M75.9,90c0,4.5-2.6,7.3-6.5,7.3c-2.2,0-3.2-0.7-3.2-1.3c0-0.4,0.1-0.8,0.2-1.2c0.9,0.7,2,1.1,3.1,1
	c2.9,0,4.7-2.5,4.7-5.8c0-2.8-2.3-3.2-4.7-3.3v-1.1c2.5-1.4,4-3.1,4-4.8c0-0.9-0.4-2.2-2.6-2.2c-1.6-0.1-3.1,0.3-4.5,1.1
	c-0.1-0.4-0.2-0.8-0.2-1.2c0-0.6,1.9-1.5,5-1.5s4,1.6,4,3.4c0,2.3-1.7,4-3.4,5.2C73.9,85.9,75.9,87,75.9,90z"/>
<path class="st1" d="M92,94.4V74.6c0-0.2,0.2-0.4,0.4-0.4c0,0,0,0,0,0h6.9c0,1.3,0,1.4-0.3,1.4h-5.4v7h5.1c0,1.2,0,1.5-0.4,1.5h-4.7
	v9.9c0,0,0,0.4-0.4,0.4L92,94.4z"/>
<path class="st1" d="M107.5,79.6c3,0,4.5,1.7,4.5,7.6c0,5.2-1.7,7.7-4.6,7.7s-4.6-1.1-4.6-7.6C102.7,81.9,104.5,79.6,107.5,79.6z
	 M107.3,93.5c1.8,0,3-1.8,3-6.4c0-5-1-6.1-2.8-6.1s-3.1,1.5-3.1,6.4S105.4,93.5,107.3,93.5L107.3,93.5z"/>
<path class="st1" d="M117.4,80.8c1.1-0.8,2.5-1.3,3.9-1.3c1.4,0,2.1,0.4,2.1,0.9c0,0.4-0.1,0.7-0.2,1.1c-0.5-0.3-1-0.5-1.6-0.4
	c-0.9,0-1.8,0.3-2.5,0.9v12c0,0.4,0,0.4-1.6,0.4L117.4,80.8z"/>
<path class="st1" d="M128.3,80.5c1.3-0.6,2.8-1,4.3-1c1-0.1,2.1,0.3,2.7,1.1c1.1-0.7,2.3-1.1,3.5-1.1c3.3,0,3.4,1.4,3.4,5.5v9
	c0,0.4,0.1,0.4-1.6,0.4v-9.6c0-3,0-3.8-1.9-3.8c-0.9,0-1.9,0.3-2.6,0.8v12.4c0,0.1-0.1,0.1-0.3,0.2c0,0,0,0-0.1,0h-1.2v-9.6
	c0-2.8,0-3.9-2-3.9c-0.9,0-1.8,0.2-2.7,0.7V94c0,0.4,0.1,0.4-1.6,0.4L128.3,80.5z"/>
<path class="st1" d="M156.9,93.9c-1.4,0.6-2.9,1-4.4,0.9c-3.7,0-4.2-1.6-4.2-5.5v-9c0-0.4,0-0.4,1.6-0.4v9.6c0,2.9,0.4,3.9,2.6,3.9
	c1,0,2-0.2,2.9-0.7V80.4c0-0.4-0.1-0.4,1.6-0.4L156.9,93.9z"/>
<path class="st1" d="M164.7,94c0,0.4,0,0.4-1.6,0.4V74c0-0.8,0.3-0.8,1.6-0.8V94z"/>
<path class="st1" d="M170.4,80.8c0-0.3,0.1-0.5,0.2-0.6c1.6-0.5,3.3-0.8,5-0.7c1.8,0,3,0.9,3,3.5v1.9c0,5.1-0.1,9-0.1,9
	c-1.2,0.7-2.6,1-3.9,1c-2.1,0-4.1-0.2-4.1-4.4c0-4.1,2.1-4.7,4.3-4.7c0.8,0,1.6,0.1,2.4,0.4v-2.7c0-1.9-0.9-2.3-2-2.3
	c-1.5,0-3,0.2-4.4,0.7C170.5,81.6,170.4,81.2,170.4,80.8z M177,87.2c-0.6-0.2-1.2-0.3-1.9-0.3c-1.6,0-3.1,0.4-3.1,3.5
	c0,3,1.2,3,2.7,3c0.8,0,1.5-0.2,2.2-0.6C176.9,92.9,177,89.4,177,87.2z"/>
<path class="st1" d="M184.4,80.8c1.1-0.8,2.5-1.3,3.9-1.3c1.4,0,2.1,0.4,2.1,0.9c0,0.4-0.1,0.7-0.2,1.1c-0.5-0.3-1-0.5-1.6-0.4
	c-0.9,0-1.8,0.3-2.5,0.9v12c0,0.4,0,0.4-1.6,0.4L184.4,80.8z"/>
<path class="st1" d="M196.2,73.6c0.7,0,0.9,0.4,0.9,1.3s-0.3,1.4-1,1.4s-0.9-0.4-0.9-1.3S195.5,73.6,196.2,73.6z M196.9,94
	c0,0.4,0,0.4-1.6,0.4V80.8c0-0.8,0.4-0.8,1.6-0.8V94z"/>
<polygon class="st1" points="126.4,106.1 99.4,153.7 72.3,106.1 53.8,106.1 99.4,185.5 144.9,106.1 "/>
<polygon class="st0" points="110,106.1 99.3,124.5 88.7,106.1 72.3,106.1 99.4,153.7 126.4,106.1 "/>
</svg>
